<svg width="24" height="24" viewBox="0 0 24 24" fill="none" xmlns="http://www.w3.org/2000/svg">
<path fill-rule="evenodd" clip-rule="evenodd" d="M7.48837 2.86957H11.6744C12.0597 2.86957 12.3721 3.12911 12.3721 3.44928V5.18841C12.3721 5.50857 12.0597 5.76812 11.6744 5.76812H7.48837C7.10306 5.76812 6.7907 5.50857 6.7907 5.18841V3.44928C6.7907 3.12911 7.10306 2.86957 7.48837 2.86957ZM11.3256 8.08696H11.6744C11.8198 8.08696 11.9616 8.12471 12.0799 8.19494L14.8706 9.64421C15.054 9.75303 15.1628 9.92872 15.1628 10.1159V21.4203C15.1628 21.7405 14.8504 22 14.4651 22H4.69767C4.31236 22 4 21.7405 4 21.4203V10.1159C4 9.92872 4.10881 9.75303 4.29216 9.64421L7.08286 8.19494C7.20118 8.12471 7.34296 8.08696 7.48837 8.08696H7.83721V6.63768H11.3256V8.08696ZM18.3023 3.15942C17.917 3.15942 17.6047 2.89988 17.6047 2.57971C17.6047 2.25955 17.917 2 18.3023 2C18.6876 2 19 2.25955 19 2.57971C19 2.89988 18.6876 3.15942 18.3023 3.15942ZM18.3023 5.18841C17.917 5.18841 17.6047 4.92886 17.6047 4.6087C17.6047 4.28853 17.917 4.02899 18.3023 4.02899C18.6876 4.02899 19 4.28853 19 4.6087C19 4.92886 18.6876 5.18841 18.3023 5.18841ZM18.3023 7.21739C17.917 7.21739 17.6047 6.95785 17.6047 6.63768C17.6047 6.31752 17.917 6.05797 18.3023 6.05797C18.6876 6.05797 19 6.31752 19 6.63768C19 6.95785 18.6876 7.21739 18.3023 7.21739ZM16.2093 6.05797C15.824 6.05797 15.5116 5.79843 15.5116 5.47826C15.5116 5.1581 15.824 4.89855 16.2093 4.89855C16.5946 4.89855 16.907 5.1581 16.907 5.47826C16.907 5.79843 16.5946 6.05797 16.2093 6.05797ZM14.1163 4.89855C13.731 4.89855 13.4186 4.63901 13.4186 4.31884C13.4186 3.99868 13.731 3.73913 14.1163 3.73913C14.5016 3.73913 14.814 3.99868 14.814 4.31884C14.814 4.63901 14.5016 4.89855 14.1163 4.89855ZM16.2093 4.02899C15.824 4.02899 15.5116 3.76944 15.5116 3.44928C15.5116 3.12911 15.824 2.86957 16.2093 2.86957C16.5946 2.86957 16.907 3.12911 16.907 3.44928C16.907 3.76944 16.5946 4.02899 16.2093 4.02899Z" fill="white"/>
</svg>
