<svg width="24" height="24" viewBox="0 0 24 24" fill="none" xmlns="http://www.w3.org/2000/svg">
<path d="M14.6736 12.779V6.44213C14.6736 5.95792 14.2736 5.55792 13.7894 5.55792H10.2104C9.72623 5.55792 9.32623 5.95792 9.32623 6.44213V12.779C10.0841 12.2316 11.0104 11.9369 11.9999 11.9369C12.9894 11.9158 13.9157 12.2316 14.6736 12.779Z" fill="white"/>
<path d="M6.44211 9.09473H2.88421C2.4 9.09473 2 9.49473 2 9.97894V15.4526C2 15.9368 2.4 16.3368 2.88421 16.3368H6.44211C6.92632 16.3368 7.32632 15.9368 7.32632 15.4526V9.97894C7.32632 9.49473 6.92632 9.09473 6.44211 9.09473Z" fill="white"/>
<path d="M21.1159 2H17.558C17.0738 2 16.6738 2.4 16.6738 2.88421V15.4526C16.6738 15.9368 17.0738 16.3368 17.558 16.3368H21.1159C21.6001 16.3368 22.0001 15.9368 22.0001 15.4526V2.88421C22.0001 2.4 21.6001 2 21.1159 2Z" fill="white"/>
<path d="M14.8422 18.1263C15.1159 17.6421 15.2843 17.1158 15.2843 16.5263C15.2843 14.7158 13.8106 13.2421 12.0001 13.2421C10.1896 13.2421 8.71588 14.7158 8.71588 16.5263C8.71588 18.3369 10.1896 19.8105 12.0001 19.8105C12.5896 19.8105 13.1159 19.6421 13.6001 19.3895L14.9896 20.779C15.158 20.9474 15.3896 21.0316 15.6211 21.0316C15.8527 21.0316 16.0843 20.9474 16.2527 20.779C16.5896 20.4421 16.5896 19.8737 16.2527 19.5158L14.8422 18.1263ZM10.4422 16.5263C10.4422 15.6632 11.1369 14.9684 12.0001 14.9684C12.8632 14.9684 13.558 15.6632 13.558 16.5263C13.558 17.3895 12.8632 18.0842 12.0001 18.0842C11.1369 18.0842 10.4422 17.3895 10.4422 16.5263Z" fill="white"/>
</svg>
