<svg width="24" height="24" viewBox="0 0 24 24" fill="none" xmlns="http://www.w3.org/2000/svg">
<path d="M2.71429 6.58895H13.4286C13.6769 6.58895 13.8956 6.5055 14.0525 6.34858C14.2094 6.19167 14.2929 5.97303 14.2929 5.72466C14.2929 5.47629 14.2094 5.25766 14.0525 5.10074C13.8956 4.94382 13.6769 4.86038 13.4286 4.86038H2.71429C2.46591 4.86038 2.24728 4.94382 2.09036 5.10074C1.93345 5.25766 1.85 5.47629 1.85 5.72466C1.85 5.97303 1.93345 6.19167 2.09036 6.34858C2.24728 6.5055 2.46591 6.58895 2.71429 6.58895Z" fill="white" stroke="white" stroke-width="0.3"/>
<path d="M2.71429 13.017H13.4286C13.6769 13.017 13.8956 12.9336 14.0525 12.7767C14.2094 12.6198 14.2929 12.4011 14.2929 12.1528C14.2929 11.9044 14.2094 11.6858 14.0525 11.5288C13.8956 11.3719 13.6769 11.2885 13.4286 11.2885H2.71429C2.46591 11.2885 2.24728 11.3719 2.09036 11.5288C1.93345 11.6858 1.85 11.9044 1.85 12.1528C1.85 12.4011 1.93345 12.6198 2.09036 12.7767C2.24728 12.9336 2.46591 13.017 2.71429 13.017Z" fill="white" stroke="white" stroke-width="0.3"/>
<path d="M2.71429 19.4456H21.2857C21.5341 19.4456 21.7527 19.3621 21.9096 19.2052C22.0666 19.0483 22.15 18.8297 22.15 18.5813C22.15 18.3329 22.0666 18.1143 21.9096 17.9574C21.7527 17.8005 21.5341 17.717 21.2857 17.717H2.71429C2.46591 17.717 2.24728 17.8005 2.09036 17.9574C1.93345 18.1143 1.85 18.3329 1.85 18.5813C1.85 18.8297 1.93345 19.0483 2.09036 19.2052C2.24728 19.3621 2.46591 19.4456 2.71429 19.4456Z" fill="white" stroke="white" stroke-width="0.3"/>
<path d="M21.8204 11.5467L21.8205 11.5465L21.8149 11.5415L18.9379 8.93846L21.8149 6.3354L21.815 6.33554L21.8204 6.33024C22.1627 5.98786 22.1614 5.47511 21.9057 5.13417L21.8993 5.12565L21.8918 5.11811C21.5494 4.77573 21.0366 4.77705 20.6957 5.03275L20.6954 5.03227L20.6854 5.04125L17.1139 8.25554L17.1138 8.25538L17.1082 8.26097C16.9354 8.43379 16.85 8.68707 16.85 8.86703C16.85 8.95783 16.8716 9.08231 16.9126 9.19508C16.9485 9.29387 17.0133 9.42282 17.1267 9.49001L20.672 12.6808C20.8461 12.9295 21.1031 13.017 21.2857 13.017C21.4104 13.017 21.5209 12.9961 21.6234 12.9505C21.7253 12.9053 21.8115 12.8391 21.8918 12.7588C22.255 12.3956 22.1438 11.8701 21.8204 11.5467Z" fill="white" stroke="white" stroke-width="0.3"/>
</svg>
