<svg width="24" height="24" viewBox="0 0 24 24" fill="none" xmlns="http://www.w3.org/2000/svg">
<path d="M11.6924 14.3076C12.9651 14.3076 14.0001 13.2726 14.0001 12C14.0001 10.7273 12.9651 9.69226 11.6924 9.69226C10.4197 9.69226 9.3847 10.7273 9.3847 12C9.3847 13.2726 10.4197 14.3076 11.6924 14.3076ZM10.9232 11.2307C10.9232 10.8061 11.2678 10.4615 11.6924 10.4615C12.117 10.4615 12.4616 10.8061 12.4616 11.2307V12C12.4616 12.4246 12.117 12.7692 11.6924 12.7692C11.2678 12.7692 10.9232 12.4246 10.9232 12V11.2307Z" fill="white"/>
<path d="M16.3077 2.45068V5.07684H18.9338L16.3077 2.45068Z" fill="white"/>
<path d="M15.5385 6.61538C15.1138 6.61538 14.7692 6.27077 14.7692 5.84615V2H4.76923C4.34462 2 4 2.34462 4 2.76923V21.2308C4 21.6554 4.34462 22 4.76923 22H18.6154C19.04 22 19.3846 21.6554 19.3846 21.2308V6.61538H15.5385ZM10.9231 8.23154V8.15385C10.4985 8.15385 10.1538 7.80923 10.1538 7.38462C10.1538 6.96 10.4985 6.61538 10.9231 6.61538H12.4615C12.8862 6.61538 13.2308 6.96 13.2308 7.38462C13.2308 7.80923 12.8862 8.15385 12.4615 8.15385V8.23154C12.9515 8.33154 13.4077 8.52615 13.8112 8.79346L14.2254 8.37923C14.5258 8.07885 15.0127 8.07885 15.3131 8.37923C15.6135 8.67962 15.6135 9.16654 15.3131 9.46692L14.8988 9.88115C15.3023 10.4892 15.5385 11.2173 15.5385 12C15.5385 14.1208 13.8131 15.8462 11.6923 15.8462C9.57154 15.8462 7.84615 14.1208 7.84615 12C7.84615 10.1427 9.16962 8.58885 10.9231 8.23154ZM12.4615 18.9231H7.84615C7.42154 18.9231 7.07692 18.5785 7.07692 18.1538C7.07692 17.7292 7.42154 17.3846 7.84615 17.3846H12.4615C12.8862 17.3846 13.2308 17.7292 13.2308 18.1538C13.2308 18.5785 12.8862 18.9231 12.4615 18.9231ZM15.5385 18.9231H14.7692C14.3446 18.9231 14 18.5785 14 18.1538C14 17.7292 14.3446 17.3846 14.7692 17.3846H15.5385C15.9631 17.3846 16.3077 17.7292 16.3077 18.1538C16.3077 18.5785 15.9631 18.9231 15.5385 18.9231Z" fill="white"/>
</svg>
