<svg width="24" height="24" viewBox="0 0 24 24" fill="none" xmlns="http://www.w3.org/2000/svg">
<path d="M6.32047 7.47307C5.90052 6.72627 6.01761 5.15702 6.16532 4.57011C6.23555 4.29093 6.3822 4.10587 6.5858 4.19586C6.60753 4.20548 6.62905 4.21401 6.65021 4.22237C6.84475 4.29674 6.91144 4.55522 6.88281 4.8324C6.76885 5.9368 6.96233 6.58968 7.35779 7.23294L6.32047 7.47307Z" fill="white"/>
<path d="M6.02049 6.83524C5.98504 7.02 5.87083 7.15296 5.72243 7.18225C5.20414 7.2716 4.68286 7.3169 4.16111 7.31794C3.98383 7.31794 3.8135 7.3114 3.66128 7.29633C3.28263 7.25893 3.20522 6.92717 3.19052 6.82658C3.17592 6.72852 3.18297 6.62605 3.21063 6.53444C3.23828 6.44283 3.28507 6.36699 3.344 6.31823C3.36512 6.30128 3.38957 6.28421 3.41605 6.26691C3.29497 6.19954 3.1796 6.11127 3.0723 6.00389C2.91187 5.8302 2.93263 5.63164 2.94899 5.5543C3.02766 5.18259 3.47831 5.16667 3.49728 5.16619C3.72792 5.16673 3.95797 5.2006 4.18422 5.26732C4.23966 5.2816 4.30395 5.29818 4.35025 5.30641C4.35049 5.25194 4.34651 5.17981 4.34379 5.12988C4.33275 4.92841 4.3202 4.70019 4.42908 4.55041C4.46075 4.50808 4.4987 4.47754 4.53983 4.46128C4.58095 4.44503 4.62407 4.44353 4.66566 4.45691C4.98862 4.53649 5.20546 5.0066 5.43505 5.50437C5.58398 5.82724 5.73798 6.16112 5.91835 6.38244C5.96349 6.43443 5.99729 6.50518 6.01547 6.58577C6.03365 6.66636 6.0354 6.75317 6.02049 6.83524Z" fill="white"/>
<path d="M16.4285 9.01093C16.3199 9.01183 16.2126 8.97601 16.1146 8.90618C16.0469 8.85652 15.9941 8.77084 15.9667 8.66605C15.9393 8.56126 15.9393 8.44497 15.9666 8.34014C16.0708 7.94205 16.365 7.70972 16.5943 7.66233C16.7904 7.62178 16.9561 7.70366 17.0492 7.88692C17.1608 8.10684 17.151 8.38729 17.0237 8.61883C16.8997 8.84451 16.6692 9.01093 16.4285 9.01093Z" fill="white"/>
<path d="M20.3717 21.1116C20.3136 21.6206 19.9469 22 19.5139 22H3.52996C3.09661 22 2.72987 21.6206 2.67179 21.1116L2.33916 17.84H20.7047L20.3717 21.1116ZM3.47675 20.3969C3.43588 20.397 3.39596 20.4152 3.36201 20.4491C3.32807 20.483 3.30164 20.5312 3.28605 20.5875C3.27047 20.6438 3.26643 20.7057 3.27446 20.7654C3.28248 20.8251 3.3022 20.8799 3.33113 20.923C3.36005 20.966 3.39689 20.9953 3.43698 21.0071C3.47707 21.0189 3.51861 21.0128 3.55636 20.9895C3.59411 20.9661 3.62638 20.9267 3.64907 20.876C3.67177 20.8254 3.68388 20.7658 3.68388 20.7049C3.68388 20.6644 3.67851 20.6243 3.6681 20.5869C3.65768 20.5495 3.64242 20.5155 3.62318 20.4869C3.60394 20.4583 3.58111 20.4356 3.55598 20.4202C3.53086 20.4047 3.50393 20.3968 3.47675 20.3969ZM19.5667 20.3969C19.5258 20.3969 19.4859 20.415 19.4519 20.4488C19.4179 20.4827 19.3914 20.5308 19.3757 20.587C19.3601 20.6433 19.356 20.7053 19.364 20.765C19.3719 20.8248 19.3916 20.8797 19.4205 20.9228C19.4494 20.9658 19.4863 20.9952 19.5264 21.0071C19.5665 21.0189 19.608 21.0128 19.6458 20.9895C19.6836 20.9662 19.7159 20.9267 19.7386 20.8761C19.7613 20.8254 19.7734 20.7659 19.7734 20.7049C19.7734 20.6232 19.7516 20.5449 19.7129 20.4871C19.6741 20.4294 19.6215 20.3969 19.5667 20.3969Z" fill="white"/>
<path d="M12.5754 10.9699C12.5143 11.6203 12.5681 12.2832 12.7314 12.8932H11.9747C12.2383 11.7887 12.2225 10.2061 11.7518 9.02421C11.5085 8.41297 10.9988 7.57236 10.0037 7.38052C10.1093 6.3517 10.418 5.23634 10.9578 5.00636C10.8704 4.68682 10.7738 4.10403 11.0402 3.62351C11.0712 3.56835 11.1155 3.53369 11.1636 3.52709C11.2117 3.52049 11.2595 3.54248 11.2967 3.58827C11.334 3.63406 11.3575 3.69992 11.3622 3.77149C11.367 3.84306 11.3526 3.91452 11.3221 3.97028C11.108 4.35639 11.3452 4.95492 11.3472 4.96037C11.3493 4.96582 11.3505 4.97066 11.3525 4.9761C12.2598 5.19155 12.2651 7.45435 13.4791 8.44626C13.4409 8.48136 13.4039 8.51948 13.3682 8.55943C12.9328 9.04721 12.6806 9.81277 12.5754 10.9699Z" fill="white"/>
<path d="M11.4377 9.30255C11.8917 10.4427 11.8385 11.9811 11.5802 12.8931H9.58529C9.63791 12.1923 9.61114 11.4832 9.50609 10.7956C9.50089 10.7606 9.49113 10.7276 9.47735 10.6983C9.46358 10.669 9.44607 10.644 9.42581 10.6248C9.40556 10.6055 9.38297 10.5925 9.35932 10.5862C9.33567 10.58 9.31144 10.5808 9.288 10.5886C9.26456 10.5963 9.24237 10.6109 9.22271 10.6314C9.20304 10.6519 9.18628 10.678 9.17338 10.7082C9.16048 10.7384 9.1517 10.7721 9.14753 10.8073C9.14337 10.8425 9.1439 10.8786 9.1491 10.9136C9.24863 11.5625 9.27185 12.2323 9.21774 12.8931H5.58524C5.40004 12.1348 5.32125 11.1508 5.36593 10.0893C5.3907 9.50287 5.51051 8.98483 5.70261 8.63019C5.70595 8.62461 5.70907 8.61875 5.71196 8.61264C6.27202 7.60318 7.50302 7.36897 8.30108 8.12304C8.30215 8.12347 8.30313 8.12431 8.30393 8.12546C8.48469 8.29458 8.63935 8.51884 8.75773 8.78348C8.8761 9.04813 8.95551 9.34714 8.99071 9.66083C8.99943 9.73193 9.02675 9.79496 9.06666 9.83604C9.10658 9.87713 9.15581 9.8929 9.20352 9.8799C9.25124 9.8669 9.29354 9.82619 9.32111 9.76672C9.34868 9.70725 9.35927 9.63389 9.35054 9.56278C9.28232 8.96657 9.08624 8.41936 8.7917 8.00321C10.0442 7.64494 10.9552 8.08975 11.4377 9.30255Z" fill="white"/>
<path d="M2.78596 12.8932C2.71129 12.8929 2.63672 12.9016 2.56299 12.9192C2.21047 11.1502 2.5634 7.88101 5.35803 8.40813C5.31921 8.4896 5.28394 8.5747 5.25244 8.66291C5.1029 9.09482 5.01718 9.56944 5.00104 10.0548C4.95636 11.1042 5.02825 12.0919 5.20005 12.8932H2.78596Z" fill="white"/>
<path d="M2.01562 14.2251C2.01765 14.2124 2.01968 14.1997 2.02212 14.187C2.02456 14.1743 2.02699 14.1609 2.02984 14.1482C2.03177 14.1384 2.03408 14.1287 2.03674 14.1192C2.03918 14.1077 2.04243 14.0956 2.04568 14.0841C2.04823 14.0735 2.05122 14.0632 2.05461 14.0532C2.05745 14.0429 2.0607 14.0326 2.06395 14.023C2.06761 14.0121 2.07126 14.0018 2.07492 13.9915C2.07654 13.9873 2.07776 13.9836 2.07939 13.98C2.08345 13.9691 2.08791 13.9582 2.09238 13.9473C2.09766 13.934 2.10335 13.9213 2.10944 13.9086C2.12675 13.8716 2.1456 13.8362 2.16589 13.8027C2.16649 13.8012 2.16732 13.7999 2.16833 13.799C2.17523 13.7875 2.18295 13.776 2.19067 13.7652C2.20199 13.7481 2.21392 13.7319 2.22641 13.7167C2.26464 13.6691 2.30601 13.6273 2.34987 13.5921C2.36003 13.5836 2.37018 13.5763 2.38074 13.5685C2.4126 13.5455 2.44543 13.5257 2.47902 13.5092C2.55167 13.4736 2.62696 13.4515 2.70321 13.4432V13.4426C2.73002 13.4396 2.75764 13.4377 2.78606 13.4377H20.2569C20.7812 13.4377 21.1041 13.9854 21.0338 14.6009L20.7593 17.2988C20.7503 17.2967 20.7412 17.2955 20.7321 17.2952H2.31129C2.30204 17.2955 2.29281 17.2967 2.28367 17.2988L2.00953 14.6009C1.99501 14.4763 1.99708 14.3486 2.01562 14.2251ZM20.1801 14.8503C20.2211 14.8504 20.2612 14.8324 20.2953 14.7985C20.3294 14.7647 20.356 14.7165 20.3718 14.6601C20.3875 14.6038 20.3917 14.5417 20.3837 14.4818C20.3758 14.4219 20.3561 14.3668 20.3271 14.3236C20.2982 14.2804 20.2613 14.2509 20.2211 14.2389C20.1809 14.227 20.1392 14.2331 20.1014 14.2564C20.0635 14.2797 20.0311 14.3193 20.0083 14.3701C19.9856 14.4208 19.9734 14.4805 19.9734 14.5416C19.9734 14.5821 19.9787 14.6222 19.9891 14.6596C19.9994 14.6971 20.0147 14.7311 20.0339 14.7597C20.0531 14.7884 20.0759 14.8112 20.101 14.8267C20.1261 14.8422 20.153 14.8502 20.1801 14.8503ZM2.86282 14.8503C2.90381 14.8504 2.9439 14.8324 2.97801 14.7985C3.01213 14.7647 3.03874 14.7165 3.05448 14.6601C3.07022 14.6038 3.07438 14.5417 3.06643 14.4818C3.05849 14.4219 3.03879 14.3668 3.00984 14.3236C2.98089 14.2804 2.94398 14.2509 2.90379 14.2389C2.8636 14.227 2.82193 14.2331 2.78406 14.2564C2.74619 14.2797 2.71382 14.3193 2.69104 14.3701C2.66826 14.4208 2.6561 14.4805 2.6561 14.5416C2.65607 14.5821 2.66139 14.6222 2.67176 14.6596C2.68213 14.6971 2.69736 14.7311 2.71655 14.7597C2.73575 14.7884 2.75855 14.8112 2.78365 14.8267C2.80874 14.8422 2.83565 14.8502 2.86282 14.8503Z" fill="white"/>
<path d="M20.0853 7.54188C20.441 7.93719 20.6445 8.54698 20.6336 9.43994C20.3846 9.30256 19.857 9.14702 19.7441 9.11495C19.7205 9.10819 19.6963 9.10842 19.6728 9.11563C19.6493 9.12283 19.6269 9.13686 19.6071 9.15692C19.5872 9.17698 19.5702 9.20268 19.557 9.23255C19.5437 9.26242 19.5346 9.29587 19.5301 9.331C19.5255 9.36613 19.5257 9.40224 19.5305 9.43728C19.5354 9.47232 19.5448 9.5056 19.5582 9.53521C19.5717 9.56483 19.589 9.5902 19.609 9.60989C19.629 9.62957 19.6515 9.64318 19.6751 9.64994C19.9464 9.7274 20.422 9.88414 20.5426 9.9725C20.5613 9.98594 20.5813 9.99473 20.6019 9.99852C20.5815 10.2064 20.5541 10.4126 20.5198 10.6164C20.413 11.2567 20.197 12.0459 19.935 12.8931H17.304C17.4329 12.531 17.5183 12.1382 17.5567 11.7324C17.5692 11.5938 17.5775 11.4586 17.5814 11.3269C17.7362 11.3723 17.9128 11.4286 18.0871 11.4946C18.1018 11.5003 18.1169 11.5032 18.1322 11.503C18.1766 11.5028 18.2195 11.4785 18.2528 11.4345C18.2861 11.3905 18.3075 11.33 18.313 11.2642C18.3184 11.1985 18.3076 11.132 18.2826 11.0772C18.2575 11.0225 18.2199 10.9832 18.1768 10.9668C17.9624 10.8863 17.7471 10.8192 17.5701 10.7689C17.5413 10.3259 17.4406 9.89991 17.2768 9.52769C17.2837 9.48351 17.291 9.43994 17.2988 9.39697C17.5793 7.7845 18.0887 7.0869 18.7293 6.99243C18.7614 6.22511 18.783 5.3255 18.4693 4.81085C17.9625 3.97871 17.6908 3.07698 18.5562 3.35416C18.5562 3.35416 18.5912 2.8803 18.9587 2.96139C18.9088 2.30113 19.3519 1.67234 19.626 2.2043C19.7783 2.49963 19.9798 2.82886 20.2722 2.38525C20.989 1.29894 21.7952 2.76107 21.6035 3.67794C21.5864 3.76002 21.5657 3.84029 21.5414 3.9182C21.9808 3.97024 21.8074 4.70555 21.8074 4.70555C22.1051 5.0384 22.1047 5.68656 21.4691 5.97281C20.9737 6.19576 20.5412 6.64197 20.0853 7.54188Z" fill="white"/>
<path d="M17.212 11.3975C17.212 11.4015 17.2117 11.4053 17.2115 11.4093L17.2113 11.4132C17.2075 11.4936 17.2018 11.5755 17.1941 11.6592C17.1889 11.7162 17.1823 11.7731 17.1746 11.8298C17.1702 11.863 17.1648 11.8958 17.1596 11.9286C17.1562 11.95 17.153 11.9714 17.1492 11.9927C17.1417 12.0355 17.1334 12.0778 17.1248 12.1198C17.1231 12.1281 17.1214 12.1364 17.1196 12.1446C17.1008 12.2328 17.0802 12.3201 17.0561 12.4052C17.0561 12.4023 17.0561 12.3992 17.0564 12.3965C17.0077 12.5691 16.9492 12.7352 16.8815 12.893H13.1312C12.9448 12.3187 12.8775 11.6746 12.9379 11.043C13.0293 10.0396 13.2356 9.38898 13.5877 8.995C13.9037 8.64097 14.3439 8.49027 14.9235 8.53627C14.932 8.2954 14.8975 8.0618 14.7736 7.91474C14.7548 7.89245 14.7392 7.86486 14.7276 7.83356C14.716 7.80226 14.7086 7.76785 14.7059 7.73231C14.7032 7.69677 14.7052 7.66078 14.7119 7.6264C14.7185 7.59202 14.7296 7.55993 14.7446 7.53196C14.7595 7.50398 14.778 7.48067 14.7991 7.46336C14.8201 7.44604 14.8431 7.43506 14.867 7.43105C14.8909 7.42703 14.915 7.43005 14.9381 7.43994C14.9611 7.44983 14.9827 7.46639 15.0015 7.48869C15.2602 7.79612 15.3211 8.25788 15.2813 8.67304C15.2809 8.67546 15.2809 8.67849 15.2805 8.68091C15.2801 8.68288 15.28 8.68492 15.2801 8.68696H15.2797C15.2598 8.87767 15.2261 9.06458 15.1789 9.24434C15.163 9.22865 15.1496 9.20814 15.1393 9.18416C15.1291 9.16017 15.1224 9.13325 15.1196 9.10514C15.1185 9.06903 15.1125 9.03363 15.1021 9.00099C15.0917 8.96835 15.077 8.93913 15.0589 8.91504C15.0408 8.89095 15.0197 8.87247 14.9967 8.86067C14.9738 8.84887 14.9495 8.844 14.9253 8.84633C14.9011 8.84866 14.8774 8.85815 14.8557 8.87424C14.834 8.89034 14.8146 8.91272 14.7988 8.94008C14.7829 8.96743 14.7709 8.99922 14.7633 9.03359C14.7558 9.06796 14.753 9.10421 14.7549 9.14025C14.7683 9.45555 14.9288 9.72546 15.1733 9.84529C15.2308 9.87338 15.2901 9.89225 15.3503 9.90157C15.5684 9.93546 15.8121 9.85074 15.9701 9.57053C16.0009 9.51517 16.0157 9.44391 16.0114 9.37229C16.0071 9.30068 15.9839 9.23453 15.947 9.18827C15.91 9.14201 15.8623 9.1194 15.8142 9.12537C15.7661 9.13133 15.7216 9.1654 15.6903 9.22013C15.6517 9.28392 15.6007 9.32815 15.5445 9.34661C15.5964 9.13083 15.6314 8.90684 15.6488 8.67909C15.6862 8.69059 15.7228 8.7033 15.7585 8.71661C15.7694 8.808 15.7946 8.89428 15.832 8.96842C15.8695 9.04256 15.9182 9.10247 15.9742 9.14327C16.1035 9.23507 16.2451 9.28223 16.3884 9.28125C16.4564 9.28089 16.5243 9.27096 16.5911 9.2516C16.8765 9.54288 17.0804 9.97995 17.1642 10.4801L17.1645 10.4766C17.1755 10.5395 17.1849 10.6043 17.1922 10.6708H17.191C17.1981 10.7313 17.2041 10.7931 17.2084 10.8563C17.2181 11.0073 17.2204 11.1592 17.2153 11.3108C17.2144 11.3394 17.2132 11.3684 17.212 11.3975Z" fill="white"/>
</svg>
