<svg width="24" height="24" viewBox="0 0 24 24" fill="none" xmlns="http://www.w3.org/2000/svg">
<path d="M3.99994 9L2.08569 9.927L3.99994 10.8717V9Z" fill="white"/>
<path d="M20.0001 9V10.8717L21.9143 9.927L20.0001 9Z" fill="white"/>
<path d="M11.9996 14.805L12.1363 14.7526L19.0001 11.3652V3.5C19.0001 3.43433 18.9872 3.36929 18.9621 3.30861C18.937 3.24793 18.9001 3.1928 18.8537 3.14636C18.8073 3.09992 18.7521 3.06309 18.6915 3.03798C18.6308 3.01287 18.5657 2.99996 18.5001 3H5.50006C5.43439 2.99996 5.36935 3.01287 5.30867 3.03798C5.24799 3.06309 5.19286 3.09992 5.14642 3.14636C5.09998 3.1928 5.06315 3.24793 5.03804 3.30861C5.01293 3.36929 5.00002 3.43433 5.00006 3.5V11.3652L11.8987 14.7698L11.9996 14.805ZM11.5001 11.5V11H10.5001C10.3675 11 10.2403 10.9473 10.1465 10.8536C10.0527 10.7598 10.0001 10.6326 10.0001 10.5C10.0001 10.3674 10.0527 10.2402 10.1465 10.1464C10.2403 10.0527 10.3675 10 10.5001 10H12.5001C12.6327 10 12.7598 9.94732 12.8536 9.85355C12.9474 9.75979 13.0001 9.63261 13.0001 9.5C13.0001 9.36739 12.9474 9.24021 12.8536 9.14645C12.7598 9.05268 12.6327 9 12.5001 9H11.5001C11.1022 9 10.7207 8.84196 10.4394 8.56066C10.1581 8.27936 10.0001 7.89782 10.0001 7.5C10.0001 7.10218 10.1581 6.72064 10.4394 6.43934C10.7207 6.15804 11.1022 6 11.5001 6V5.5C11.5001 5.36739 11.5527 5.24021 11.6465 5.14645C11.7403 5.05268 11.8675 5 12.0001 5C12.1327 5 12.2598 5.05268 12.3536 5.14645C12.4474 5.24021 12.5001 5.36739 12.5001 5.5V6H13.5001C13.6327 6 13.7598 6.05268 13.8536 6.14645C13.9474 6.24021 14.0001 6.36739 14.0001 6.5C14.0001 6.63261 13.9474 6.75979 13.8536 6.85355C13.7598 6.94732 13.6327 7 13.5001 7H11.5001C11.3675 7 11.2403 7.05268 11.1465 7.14645C11.0527 7.24021 11.0001 7.36739 11.0001 7.5C11.0001 7.63261 11.0527 7.75979 11.1465 7.85355C11.2403 7.94732 11.3675 8 11.5001 8H12.5001C12.8979 8 13.2794 8.15804 13.5607 8.43934C13.842 8.72064 14.0001 9.10218 14.0001 9.5C14.0001 9.89782 13.842 10.2794 13.5607 10.5607C13.2794 10.842 12.8979 11 12.5001 11V11.5C12.5001 11.6326 12.4474 11.7598 12.3536 11.8536C12.2598 11.9473 12.1327 12 12.0001 12C11.8675 12 11.7403 11.9473 11.6465 11.8536C11.5527 11.7598 11.5001 11.6326 11.5001 11.5Z" fill="white"/>
<path d="M12 15.935L2 11V20.5C1.99996 20.5657 2.01287 20.6307 2.03798 20.6914C2.06309 20.7521 2.09992 20.8072 2.14636 20.8536C2.1928 20.9001 2.24793 20.9369 2.30861 20.962C2.36929 20.9871 2.43433 21 2.5 21H21.5C21.5657 21 21.6307 20.9871 21.6914 20.962C21.7521 20.9369 21.8072 20.9001 21.8536 20.8536C21.9001 20.8072 21.9369 20.7521 21.962 20.6914C21.9871 20.6307 22 20.5657 22 20.5V11L12 15.935Z" fill="white"/>
</svg>
