<svg width="24" height="24" viewBox="0 0 24 24" fill="none" xmlns="http://www.w3.org/2000/svg">
<path d="M12.5181 13.7831L20.3735 6.96386C20.7108 7.63855 20.9036 8.40964 20.9036 9.20482V16.9157C20.9036 18.3614 20.3012 19.6627 19.3373 20.5783L12.5181 13.7831ZM4.66265 20.6024C5.57831 21.4699 6.78313 22 8.13253 22H15.8434C16.4458 22 17.0241 21.9036 17.5783 21.6867L10.9759 15.1325L4.66265 20.6024ZM15.8193 4.16867H11.0241C11.1928 4.62651 11.2651 5.13253 11.2651 5.63855C11.2651 6.6506 10.6145 8.07229 9.28916 10C8.37349 11.3253 7.45783 12.4096 7.40964 12.4578L6.78313 13.1807L6.15663 12.4578C6.10843 12.4096 5.21687 11.3494 4.27711 10C3.81928 9.3253 3.43373 8.69879 3.12048 8.14458C3.04819 8.50602 3 8.86747 3 9.25301V16.9639C3 17.6867 3.14458 18.3614 3.40964 18.988L19.0482 5.42169C18.2289 4.62651 17.0723 4.16867 15.8193 4.16867ZM4.49398 8.77108C4.06024 8.07229 3.6506 7.37349 3.40964 6.72289C3.38554 6.6506 3.36145 6.55422 3.33735 6.48193C3.24096 6.16867 3.19277 5.87952 3.19277 5.63855C3.19277 5.13253 3.28916 4.6506 3.48193 4.21687C3.53012 4.09639 3.57831 4 3.62651 3.90361C3.6988 3.75904 3.79518 3.59036 3.91566 3.46988C4.59036 2.57831 5.6506 2 6.83133 2C8.08434 2 9.19277 2.62651 9.84337 3.61446C10.2289 4.19277 10.4699 4.89157 10.4699 5.63855C10.4699 6.0241 10.3494 6.48193 10.1325 6.96386C10.1084 7.03614 10.0602 7.13253 10.012 7.20482C9.86747 7.49398 9.72289 7.80723 9.53012 8.09639C9.48193 8.19277 9.43374 8.26506 9.38554 8.36145C9.31325 8.48193 9.21687 8.62651 9.14458 8.74699C9.07229 8.86747 8.9759 9.01205 8.90361 9.13253C8.87952 9.18072 8.85542 9.22892 8.80723 9.25301C8.75904 9.3253 8.68675 9.42169 8.63855 9.49398C8.61446 9.54217 8.59036 9.56627 8.54217 9.61446C8.44578 9.73494 8.37349 9.85542 8.27711 9.9759C8.25301 10.0241 8.22892 10.0482 8.20482 10.0964C7.45783 11.1325 6.80723 11.8795 6.80723 11.8795C6.80723 11.8795 5.77108 10.6747 4.80723 9.25301C4.75904 9.18072 4.68675 9.08434 4.63855 8.98795C4.61446 8.93976 4.56627 8.84337 4.49398 8.77108ZM8.25301 5.27711C8.25301 4.89157 8.08434 4.53012 7.84337 4.26506C7.81928 4.24096 7.81928 4.24096 7.79518 4.21687C7.72289 4.14458 7.62651 4.07229 7.50602 4.0241C7.48193 4.0241 7.45783 4 7.43373 4C7.38554 3.9759 7.36145 3.95181 7.31325 3.95181C7.16867 3.90361 7 3.85542 6.83133 3.85542C6.66265 3.85542 6.49398 3.87952 6.3494 3.95181C6.3012 3.9759 6.25301 3.9759 6.22892 4C6.15663 4.0241 6.10843 4.07229 6.06024 4.09639C6.01205 4.12048 5.98795 4.14458 5.93976 4.16867C5.91566 4.19277 5.86747 4.21687 5.84337 4.26506C5.79518 4.31325 5.74699 4.36145 5.6988 4.40964C5.6747 4.43373 5.6747 4.45783 5.6506 4.45783C5.60241 4.53012 5.55422 4.60241 5.53012 4.6988C5.50602 4.79518 5.45783 4.86747 5.45783 4.96386C5.43374 5.06024 5.43374 5.15663 5.43374 5.25301C5.43374 5.49398 5.50602 5.73494 5.60241 5.92771C5.60241 5.95181 5.62651 5.9759 5.62651 5.9759C5.6506 6.0241 5.6747 6.04819 5.6988 6.09639C5.74699 6.14458 5.79518 6.19277 5.84337 6.24096C5.86747 6.26506 5.91566 6.31325 5.93976 6.33735C5.96386 6.36145 5.96386 6.36145 5.98795 6.38554C6.22892 6.55422 6.51807 6.6747 6.83133 6.6747C7.21687 6.6747 7.57831 6.50602 7.84337 6.26506C7.86747 6.24096 7.91566 6.19277 7.93976 6.16867C8.13253 5.95181 8.25301 5.63855 8.25301 5.27711Z" fill="white"/>
</svg>
