<svg width="16" height="16" viewBox="0 0 16 16" fill="none" xmlns="http://www.w3.org/2000/svg">
<path d="M13.9115 5.17052C13.715 4.97651 13.399 4.9775 13.2045 5.17353L8.08198 10.343L2.88798 5.19554C2.69147 5.00105 2.37546 5.00253 2.18046 5.19855C1.98597 5.39506 1.98745 5.71155 2.18347 5.90606L7.70397 11.3766C7.71246 11.3851 7.72346 11.3871 7.73198 11.3951C7.73396 11.397 7.73448 11.3995 7.73646 11.4016C7.83395 11.4981 7.96146 11.5466 8.08846 11.5466C8.21696 11.5466 8.34595 11.4971 8.44347 11.3986L13.914 5.87808C14.109 5.68152 14.1075 5.36503 13.9115 5.17052Z" fill="#828282"/>
</svg>
