<svg width="24" height="24" viewBox="0 0 24 24" fill="none" xmlns="http://www.w3.org/2000/svg">
<path d="M22.347 21.2868L18.771 17.4608C20.2224 15.7151 21.0166 13.5381 21.0166 11.2481C21.0166 5.87402 16.6424 1.49976 11.2642 1.49976C5.89013 1.49976 1.51587 5.87402 1.51587 11.2481C1.51587 16.6222 5.89013 20.9965 11.2642 20.9965C12.6713 20.9965 14.0299 20.7022 15.2998 20.1216C15.6788 19.9483 15.8441 19.5048 15.6707 19.1299C15.4974 18.7509 15.0539 18.5856 14.679 18.759C13.6025 19.2468 12.4535 19.4967 11.2642 19.4967C6.71661 19.4967 3.01562 15.7957 3.01562 11.2481C3.01562 6.70049 6.71661 2.9995 11.2642 2.9995C15.8119 2.9995 19.5128 6.70049 19.5128 11.2481C19.5128 13.3889 18.6944 15.4168 17.2148 16.9609C16.9286 17.2592 16.9367 17.7349 17.235 18.0212C17.2592 18.0413 17.2874 18.0494 17.3116 18.0696C17.3318 18.0978 17.3439 18.1341 17.368 18.1623L21.2464 22.3108C21.3916 22.468 21.5931 22.5486 21.7947 22.5486C21.9802 22.5486 22.1616 22.4801 22.3067 22.3471C22.6131 22.0648 22.6293 21.5891 22.347 21.2868Z" fill="#BDBDBD"/>
</svg>
