<svg width="24" height="24" viewBox="0 0 24 24" fill="none" xmlns="http://www.w3.org/2000/svg">
<path d="M15.4562 3.59986L13.5597 3.60026C13.3598 2.67729 12.5765 2 11.6385 2C10.7005 2 9.91733 2.67729 9.71742 3.59986L7.81793 3.59947V7.19956H15.4562V3.59986Z" fill="white"/>
<path d="M16.22 5.20135V7.99946H7.05408V5.20135H4V21.2H19.2765V5.20135H16.22ZM6.02024 9.88211L6.56028 9.31653L7.436 10.2336L8.31171 9.31653L8.85176 9.88211L7.97604 10.7992L8.85176 11.7163L8.31171 12.2819L7.436 11.3648L6.56028 12.2819L6.02024 11.7163L6.89595 10.7992L6.02024 9.88211ZM6.02024 13.8818L6.56028 13.3162L7.436 14.2333L8.31171 13.3162L8.85176 13.8818L7.97604 14.7989L8.85176 15.716L8.31171 16.2816L7.436 15.3645L6.56028 16.2816L6.02024 15.716L6.89595 14.7989L6.02024 13.8818ZM7.05632 20.2629L5.82928 18.9778L6.36933 18.4122L7.05632 19.1317L8.50267 17.617L9.04271 18.1826L7.05632 20.2629ZM17.3657 19.1985H10.4913V18.3986H17.3657V19.1985ZM17.3657 15.1988H10.4913V14.3989H17.3657V15.1988ZM17.3657 11.1992H10.4913V10.3993H17.3657V11.1992Z" fill="white"/>
</svg>
